<?xml version="1.0" encoding="UTF-8" standalone="no"?>
<!-- Created with Inkscape (http://www.inkscape.org/) -->

<svg
   version="1.1"
   id="svg1"
   width="452.70697"
   height="386.90314"
   viewBox="0 0 452.70697 386.90314"
   xmlns="http://www.w3.org/2000/svg"
   xmlns:svg="http://www.w3.org/2000/svg">
  <defs
     id="defs1" />
  <g
     id="g1"
     transform="translate(-0.72260725,-0.09685191)">
    <path
       style="fill:#ffffff"
       d="m 51.435277,381.32828 c -1.066647,-8.53716 0.06117,-21.7857 3.603308,-42.32828 3.860157,-22.38692 3.80072,-34.60116 -0.228711,-47 l -2.437384,-7.5 -2.810421,8.5 c -4.2779,12.93833 -9.245305,21.67119 -16.560972,29.11473 -8.505583,8.65426 -15.431173,12.25522 -23.7129181,12.32953 -4.4623308,0.04 -6.6711751,-0.40292 -7.8428247,-1.5728 -1.50763404,-1.50535 -1.09135501,-2.22054 5.5034018,-9.45505 C 19.998309,309.10094 21.528432,305.84407 29.225639,276 c 7.09414,-27.50582 13.120924,-40.72003 26.929823,-59.04582 25.740102,-34.1597 60.509858,-53.12319 112.047678,-61.11104 19.46946,-3.01757 62.16075,-3.30339 79.79686,-0.53424 38.71485,6.07885 73.11051,18.82948 98.65748,36.57278 24.55195,17.05222 58.46389,52.71755 74.75328,78.61832 7.56858,12.03435 22.97281,40.73669 28.17616,52.5 3.15443,7.13127 3.7722,9.65444 3.83647,15.66927 0.062,5.80284 -0.3245,7.70879 -2.02792,10 -3.67369,4.94135 -7.40918,6.429 -16.28949,6.48724 -9.11667,0.0598 -11.79783,-1.11871 -18.60598,-8.17827 -5.29415,-5.48965 -9.81947,-7.69489 -22.75441,-11.08852 -14.35521,-3.76624 -21.23409,-6.80221 -40.2241,-17.75275 -23.21913,-13.38924 -27.68661,-14.28403 -40.30406,-8.07248 -12.53613,6.17152 -33.58756,29.15941 -41.05376,44.83017 -4.92883,10.34511 -5.20152,15.68386 -1.24289,24.33338 1.69357,3.70043 3.07922,6.96293 3.07922,7.25 C 274,386.76512 262.45511,387 248.34469,387 h -25.6553 l 0.64163,-14.75 c 0.3529,-8.1125 1.38984,-23.87045 2.30431,-35.01766 0.91447,-11.14722 1.38182,-20.54852 1.03855,-20.89179 -0.34327,-0.34327 -4.57282,0.16166 -9.399,1.12208 -10.96737,2.1825 -38.36365,3.68489 -52.36283,2.87154 l -10.58795,-0.61517 0.90191,-4.96221 c 0.49605,-2.72921 0.71945,-5.14466 0.49644,-5.36767 -0.51492,-0.51492 -8.27331,19.62716 -9.86489,25.61088 -0.65831,2.475 -1.22484,8.775 -1.25895,14 -0.0713,10.92655 0.4035,12.14193 9.45528,24.20182 6.50525,8.66709 7.83341,11.62127 5.80312,12.90771 -0.74635,0.47292 -11.39858,0.86674 -23.67162,0.87516 L 113.87078,387 l -3.87743,-8.39267 c -2.13258,-4.61597 -5.97425,-13.39097 -8.53704,-19.5 C 98.893513,352.9983 96.40934,348 95.935921,348 c -1.694672,0 -8.083568,15.03086 -8.610088,20.25656 -0.486193,4.82546 -0.253851,5.60216 2.914664,9.74344 1.893634,2.475 3.980023,5.5125 4.636421,6.75 l 1.19345,2.25 H 74.10714 52.143913 Z M 395.77749,289.4433 c 5.75906,-4.0338 -1.51944,-12.80808 -7.41839,-8.94293 -2.72879,1.78797 -3.04717,5.07226 -0.8024,8.27712 1.81988,2.59824 5.08439,2.86263 8.22079,0.66581 z m -51.39143,-36.16051 c -1.9804,-2.59447 -4.02718,-5.83886 -4.5484,-7.20977 -1.15074,-3.02667 -1.48022,-15.22432 -0.456,-16.88154 2.43267,-3.93614 12.6009,1.55788 17.66644,9.54542 2.60296,4.10443 2.9519,4.35487 2.9519,2.1186 0,-1.39483 -1.40284,-5.34338 -3.11742,-8.77456 -3.33727,-6.67847 -8.62745,-11.42672 -14.06033,-12.61998 -6.27261,-1.3777 -11.81801,5.95936 -11.8207,15.63982 -0.003,9.74138 3.85438,17.18933 10.80212,20.85867 5.81786,3.07261 6.46159,2.40537 2.58239,-2.67666 z M 304.64811,377.75 c -3.1789,-5.0875 -8.24301,-14.37593 -11.25357,-20.64095 l -5.47376,-11.39095 2.67243,-4.03831 c 6.07542,-9.18059 21.55583,-22.3817 30.6794,-26.16226 4.5491,-1.88502 4.37526,-2.2422 5.10169,10.48247 0.98205,17.20241 6.53019,32.05836 17.17928,46 6.67078,8.7333 8.86015,13.11556 7.10909,14.22964 -0.63947,0.40685 -9.95388,0.74663 -20.6987,0.75505 L 310.42794,387 Z M 379,206.74019 c -29.29514,-27.22821 -60.68357,-44.38157 -100.16894,-54.74098 -6.08814,-1.59729 -11.30055,-3.13536 -11.58312,-3.41793 -1.49621,-1.49621 22.3395,-25.29504 31.27879,-31.23039 3.0103,-1.99873 5.4689,-4.13284 5.46356,-4.74247 -0.005,-0.60963 -1.55632,-3.0539 -3.44663,-5.43172 -4.49229,-5.65082 -5.92156,-10.226292 -5.24429,-16.788379 1.12902,-10.939162 8.46967,-16.634927 14.81596,-11.496014 l 2.3369,1.892307 2.66438,-4.665158 c 15.22235,-26.653324 54.20492,-27.257247 71.50978,-1.107837 1.49039,2.252141 3.2454,6.208357 3.90002,8.791592 1.14191,4.506211 1.36011,4.72005 5.37739,5.270062 6.71491,0.919347 8.5962,3.590887 8.5962,12.207097 0,6.02312 -0.44097,7.96541 -2.66079,11.71963 -3.26554,5.52279 -7.13158,9.22383 -12.17235,11.65288 -3.15572,1.52068 -4.25036,2.88748 -6.19396,7.73391 -1.29845,3.23773 -3.56458,7.14324 -5.03583,8.67889 l -2.675,2.79211 3.98478,9.3211 C 386.44661,168.85079 387.5,174.2611 387.5,193 c 0,9.23947 -0.44003,17.222 -1,18.14079 -0.85845,1.40853 -1.92011,0.7856 -7.5,-4.4006 z M 357.83191,144.30061 C 362.2184,140.81286 366,133.84594 366,129.25238 c 0,-2.20675 0.75619,-3.9744 2.25,-5.25953 8.4918,-7.30554 10.6309,-9.83683 11.71498,-13.86278 2.15848,-8.016 -1.24637,-15.635602 -8.57137,-19.181575 -5.68536,-2.752235 -10.94868,-2.221837 -16.56335,1.669133 -3.85212,2.669524 -4.06882,2.707468 -5.08566,0.890487 -4.74822,-8.484598 -16.56375,-10.89695 -23.75108,-4.849208 C 321.70875,92.264299 320,96.067849 320,102 c 0,5.80302 1.5053,9.24892 5.84044,13.36976 2.54257,2.41688 2.87228,3.25565 2.08928,5.3151 -2.58363,6.79546 -0.13432,17.08588 5.22296,21.94354 4.79388,4.3468 8.01142,5.44391 14.67923,5.00528 5.11997,-0.3368 7.03399,-0.97476 10,-3.33307 z M 342.5,137.05464 c -1.1,-0.45022 -2.87687,-1.79338 -3.94861,-2.98481 l -1.9486,-2.16622 6.9486,0.70687 c 3.82174,0.38878 8.07361,1.01011 9.44861,1.38072 l 2.5,0.67385 -3.20034,1.66748 c -3.44239,1.79358 -6.61128,2.02709 -9.79966,0.72211 z m -0.86052,-16.74849 C 340.5133,119.17996 340.95359,118 342.5,118 c 0.825,0 1.5,0.42344 1.5,0.94098 0,1.26098 -1.56159,2.1641 -2.36052,1.36517 z M 351,120 c 0,-0.55 0.675,-1 1.5,-1 0.825,0 1.5,0.45 1.5,1 0,0.55 -0.675,1 -1.5,1 -0.825,0 -1.5,-0.45 -1.5,-1 z m 10.18538,-6.68382 c -2.05616,-0.82259 -3.25527,-5.00215 -2.21791,-7.73061 1.22894,-3.23237 4.50692,-4.15998 7.58149,-2.14545 5.60244,3.67087 0.87666,12.37252 -5.36358,9.87606 z M 333.22251,108.4433 C 329.1719,105.60614 331.38223,98 336.25731,98 c 4.62388,0 6.4755,7.67288 2.52018,10.4433 C 337.55512,109.29948 336.30524,110 336,110 c -0.30524,0 -1.55512,-0.70052 -2.77749,-1.5567 z M 75.377911,176.6156 c 0.359756,-3.51142 2.221899,-14.82029 4.138095,-25.13083 4.780366,-25.72185 4.513029,-35.92434 -1.100031,-41.98093 -4.149118,-4.47698 -6.615212,-4.27785 -17.546134,1.41678 -12.126853,6.31766 -17.440105,7.24776 -24.234473,4.24228 -3.731075,-1.65043 -5.094393,-2.95767 -6.64298,-6.36975 -1.071655,-2.36123 -1.958347,-5.67146 -1.970426,-7.35606 -0.01479,-2.062072 -0.978499,-3.979329 -2.949303,-5.867479 C 23.462621,94.027097 21.60246,91.355406 20.938969,89.63252 20.275477,87.909634 18.153399,83.215715 16.223239,79.201589 11.885848,70.181176 11.73229,70.559759 25.652595,55.954408 31.236522,50.095685 36.809337,43.321692 38.036629,40.901092 41.900968,33.279415 46.079285,28.233596 51.881923,24.181236 65.196465,14.882827 76.12351,11.452788 97.296115,9.9255587 110.59164,8.9665217 111.26291,8.8098598 115.79612,5.6080138 c 8.67664,-6.12839434 15.23681,-7.1340775 20.0604,-3.0752879 3.38969,2.8522314 4.6862,6.3035857 5.57805,14.8489771 0.58477,5.602972 0.95105,6.242728 7.72913,13.5 8.61209,9.220928 16.7872,19.183606 23.58384,28.740685 l 5.06518,7.122388 -4.89504,10.636641 c -2.69228,5.850152 -6.50639,15.245077 -8.47582,20.877612 -3.81985,10.924751 -11.01772,38.367371 -12.0624,45.989201 l -0.6302,4.59778 -7.12463,1.72639 C 122.73505,155.87653 99.067007,166.21986 84.185644,176.98527 79.612749,180.29337 75.613106,183 75.29755,183 c -0.315557,0 -0.279394,-2.87298 0.08036,-6.3844 z m 67.617919,-52.45758 c 3.40001,-3.40001 5.5968,-10.56366 4.34131,-14.15683 -2.8828,-8.25043 -16.55679,2.68396 -14.83486,11.86268 0.91399,4.87194 1.15233,5.13613 4.63366,5.13613 1.98261,0 3.99285,-0.97495 5.85989,-2.84198 z M 136.95919,93.380884 C 140.90338,90.06207 143,86.025147 143,81.74966 c 0,-6.78914 -5.00662,-7.693291 -11.07286,-1.99966 -4.207,3.948591 -5.78166,8.709188 -4.53012,13.695714 0.87511,3.4867 5.3777,3.456173 9.56217,-0.06483 z M 28.47432,82.04966 c 2.776735,-5.369614 1.652866,-6.510745 -2.891629,-2.936045 -2.55462,2.009465 -2.602904,2.206569 -0.979871,4 2.169525,2.397298 2.067054,2.425459 3.8715,-1.063955 z M 67.545455,49.545455 c 2.788154,-2.788155 3.218222,-6.315174 0.879475,-7.212636 -2.120052,-0.81354 -9.394898,1.440797 -9.543413,2.957323 -0.253456,2.588107 0.321851,4.259997 1.878767,5.459858 2.383527,1.836902 4.037314,1.543311 6.785171,-1.204545 z M 161.61395,143.875 c 1.54567,-8.49682 8.62003,-35.37856 11.33394,-43.06764 6.41033,-18.161823 15.09277,-34.487725 25.81367,-48.538349 4.45208,-5.834824 7.64985,-11.435703 10.29061,-18.023983 7.498,-18.706302 15.03973,-26.2383722 31.74443,-31.703785 6.04596,-1.97810676 16.80822,-2.30415181 22.71878,-0.6882704 5.79945,1.5855082 12.83478,6.3594971 15.33606,10.4066464 1.19046,1.926204 2.55784,5.607813 3.03863,8.181353 0.48079,2.573539 1.79928,5.664633 2.92998,6.869096 6.54476,6.971724 8.16431,20.315142 3.58188,29.510889 -1.42894,2.867505 -3.36992,5.626728 -4.31329,6.131607 -1.48149,0.792866 -1.88117,0.114572 -2.9329,-4.977423 -0.66972,-3.242461 -1.63798,-6.155145 -2.15168,-6.472631 -0.5137,-0.317486 -2.63727,0.537178 -4.71903,1.899253 -2.08177,1.362075 -4.96375,2.762922 -6.40441,3.112994 l -2.61938,0.636493 3.61938,7.053614 c 3.61688,7.048738 3.61938,7.062684 3.61938,20.174375 0,11.21787 -0.34678,14.135964 -2.39114,20.120761 -4.38828,12.84658 -12.5372,27.1238 -21.38882,37.47405 l -2.77997,3.25062 -12.48892,-1.11234 C 226.58224,143.50055 218.04572,143 214.48111,143 210.9165,143 208,142.64713 208,142.21584 c 0,-0.43129 2.50797,-3.24379 5.57327,-6.25 11.08478,-10.87111 20.19326,-25.47516 23.95124,-38.40214 2.07774,-7.147175 1.61598,-17.393269 -1.0394,-23.0637 l -1.87315,-4 -0.70047,10 c -0.38527,5.5 -1.17526,11.492893 -1.75555,13.317539 -1.78197,5.603184 -9.00515,18.209381 -14.10875,24.623151 -5.16393,6.4896 -20.15408,21.29693 -24.14767,23.85316 -1.48745,0.95209 -6.99328,1.94535 -14.485,2.61312 -6.64702,0.59247 -13.50952,1.36203 -15.25,1.71013 -3.13442,0.62688 -3.15868,0.6008 -2.55057,-2.7421 z M 261.266,31.090806 c 1.29904,-4.967521 -3.56665,-8.434283 -7.87534,-5.611118 -5.15559,3.37807 -0.48664,10.888056 5.16748,8.311868 1.24979,-0.569444 2.46833,-1.784781 2.70786,-2.70075 z"
       id="path1" />
  </g>
</svg>
